<mxfile host="Electron" agent="Mozilla/5.0 (Windows NT 10.0; Win64; x64) AppleWebKit/537.36 (KHTML, like Gecko) draw.io/28.0.4 Chrome/138.0.7204.97 Electron/37.2.1 Safari/537.36" version="28.0.4">
  <diagram name="Page-1" id="6ws0Qpp1SFr7j0RGD9Xw">
    <mxGraphModel dx="2095" dy="611" grid="1" gridSize="10" guides="1" tooltips="1" connect="1" arrows="1" fold="1" page="1" pageScale="1" pageWidth="827" pageHeight="1169" math="0" shadow="0">
      <root>
        <mxCell id="0" />
        <mxCell id="1" parent="0" />
        <mxCell id="VnVgwCRqy8seNjEnO5tW-45" value="" style="rounded=0;whiteSpace=wrap;html=1;fillColor=#FF8000;" vertex="1" parent="1">
          <mxGeometry x="737.5" width="292.5" height="430" as="geometry" />
        </mxCell>
        <mxCell id="VnVgwCRqy8seNjEnO5tW-46" value="" style="rounded=0;whiteSpace=wrap;html=1;fillColor=#99004D;" vertex="1" parent="1">
          <mxGeometry x="1031" width="299" height="430" as="geometry" />
        </mxCell>
        <mxCell id="VnVgwCRqy8seNjEnO5tW-42" value="" style="rounded=0;whiteSpace=wrap;html=1;fillColor=#FFFF33;" vertex="1" parent="1">
          <mxGeometry x="530" width="210" height="430" as="geometry" />
        </mxCell>
        <mxCell id="VnVgwCRqy8seNjEnO5tW-41" value="" style="rounded=0;whiteSpace=wrap;html=1;fillColor=#FF0000;" vertex="1" parent="1">
          <mxGeometry x="320" width="210" height="430" as="geometry" />
        </mxCell>
        <mxCell id="VnVgwCRqy8seNjEnO5tW-39" value="" style="rounded=0;whiteSpace=wrap;html=1;fillColor=#3399FF;" vertex="1" parent="1">
          <mxGeometry x="15" width="305" height="430" as="geometry" />
        </mxCell>
        <mxCell id="VnVgwCRqy8seNjEnO5tW-38" value="" style="rounded=0;whiteSpace=wrap;html=1;fillColor=#33FF33;" vertex="1" parent="1">
          <mxGeometry x="-125" width="140" height="430" as="geometry" />
        </mxCell>
        <mxCell id="VnVgwCRqy8seNjEnO5tW-17" style="edgeStyle=orthogonalEdgeStyle;rounded=0;orthogonalLoop=1;jettySize=auto;html=1;exitX=1;exitY=0.5;exitDx=0;exitDy=0;entryX=0;entryY=0.5;entryDx=0;entryDy=0;" edge="1" parent="1" source="VnVgwCRqy8seNjEnO5tW-9" target="hU7J6p0bKYq7fcfu6VAh-5">
          <mxGeometry relative="1" as="geometry" />
        </mxCell>
        <mxCell id="VnVgwCRqy8seNjEnO5tW-8" style="edgeStyle=orthogonalEdgeStyle;rounded=0;orthogonalLoop=1;jettySize=auto;html=1;exitX=1;exitY=0.5;exitDx=0;exitDy=0;" edge="1" parent="1" source="hU7J6p0bKYq7fcfu6VAh-5" target="hU7J6p0bKYq7fcfu6VAh-10">
          <mxGeometry relative="1" as="geometry">
            <mxPoint x="460" y="260" as="targetPoint" />
          </mxGeometry>
        </mxCell>
        <mxCell id="hU7J6p0bKYq7fcfu6VAh-42" style="edgeStyle=orthogonalEdgeStyle;rounded=0;orthogonalLoop=1;jettySize=auto;html=1;exitX=1;exitY=0.5;exitDx=0;exitDy=0;" parent="1" source="hU7J6p0bKYq7fcfu6VAh-9" target="hU7J6p0bKYq7fcfu6VAh-15" edge="1">
          <mxGeometry relative="1" as="geometry">
            <Array as="points">
              <mxPoint x="657.5" y="195" />
            </Array>
          </mxGeometry>
        </mxCell>
        <mxCell id="VnVgwCRqy8seNjEnO5tW-34" style="edgeStyle=orthogonalEdgeStyle;rounded=0;orthogonalLoop=1;jettySize=auto;html=1;exitX=0.5;exitY=0;exitDx=0;exitDy=0;entryX=0;entryY=0.5;entryDx=0;entryDy=0;" edge="1" parent="1" source="hU7J6p0bKYq7fcfu6VAh-5" target="hU7J6p0bKYq7fcfu6VAh-9">
          <mxGeometry relative="1" as="geometry" />
        </mxCell>
        <mxCell id="VnVgwCRqy8seNjEnO5tW-50" style="edgeStyle=orthogonalEdgeStyle;rounded=0;orthogonalLoop=1;jettySize=auto;html=1;exitX=0.5;exitY=1;exitDx=0;exitDy=0;entryX=0;entryY=0.5;entryDx=0;entryDy=0;" edge="1" parent="1" source="hU7J6p0bKYq7fcfu6VAh-5" target="VnVgwCRqy8seNjEnO5tW-47">
          <mxGeometry relative="1" as="geometry" />
        </mxCell>
        <mxCell id="hU7J6p0bKYq7fcfu6VAh-5" value="&lt;div style=&quot;color: rgb(204, 204, 204); background-color: rgb(31, 31, 31); font-family: Consolas, &amp;quot;Courier New&amp;quot;, monospace; line-height: 19px; white-space: pre;&quot;&gt;&lt;div style=&quot;line-height: 19px;&quot;&gt;&lt;span class=&quot;notion-enable-hover&quot; data-token-index=&quot;0&quot; style=&quot;font-weight:600&quot;&gt;int_customer_rfm_values&lt;/span&gt;&lt;/div&gt;&lt;/div&gt;" style="text;html=1;align=center;verticalAlign=middle;whiteSpace=wrap;rounded=0;" parent="1" vertex="1">
          <mxGeometry x="334" y="250" width="160" height="20" as="geometry" />
        </mxCell>
        <mxCell id="VnVgwCRqy8seNjEnO5tW-54" style="edgeStyle=orthogonalEdgeStyle;rounded=0;orthogonalLoop=1;jettySize=auto;html=1;exitX=0.75;exitY=0;exitDx=0;exitDy=0;entryX=0;entryY=0.5;entryDx=0;entryDy=0;" edge="1" parent="1" source="hU7J6p0bKYq7fcfu6VAh-9" target="VnVgwCRqy8seNjEnO5tW-28">
          <mxGeometry relative="1" as="geometry" />
        </mxCell>
        <mxCell id="hU7J6p0bKYq7fcfu6VAh-9" value="&lt;div style=&quot;color: rgb(204, 204, 204); background-color: rgb(31, 31, 31); font-family: Consolas, &amp;quot;Courier New&amp;quot;, monospace; line-height: 19px; white-space: pre;&quot;&gt;&lt;span class=&quot;notion-enable-hover&quot; data-token-index=&quot;0&quot; style=&quot;font-weight:600&quot;&gt;int_customer_cltv&lt;/span&gt;&lt;/div&gt;" style="text;html=1;align=center;verticalAlign=middle;whiteSpace=wrap;rounded=0;" parent="1" vertex="1">
          <mxGeometry x="555" y="180" width="125" height="30" as="geometry" />
        </mxCell>
        <mxCell id="VnVgwCRqy8seNjEnO5tW-7" style="edgeStyle=orthogonalEdgeStyle;rounded=0;orthogonalLoop=1;jettySize=auto;html=1;entryX=0;entryY=0.5;entryDx=0;entryDy=0;" edge="1" parent="1" source="hU7J6p0bKYq7fcfu6VAh-10" target="hU7J6p0bKYq7fcfu6VAh-16">
          <mxGeometry relative="1" as="geometry">
            <mxPoint x="742.5" y="260" as="targetPoint" />
          </mxGeometry>
        </mxCell>
        <mxCell id="hU7J6p0bKYq7fcfu6VAh-10" value="&lt;div style=&quot;color: rgb(204, 204, 204); background-color: rgb(31, 31, 31); font-family: Consolas, &amp;quot;Courier New&amp;quot;, monospace; line-height: 19px; white-space: pre;&quot;&gt;&lt;span class=&quot;notion-enable-hover&quot; data-token-index=&quot;0&quot; style=&quot;font-weight:600&quot;&gt;int_customer_churn_flag&lt;/span&gt;&lt;/div&gt;" style="text;html=1;align=center;verticalAlign=middle;whiteSpace=wrap;rounded=0;" parent="1" vertex="1">
          <mxGeometry x="550" y="245" width="150" height="30" as="geometry" />
        </mxCell>
        <mxCell id="VnVgwCRqy8seNjEnO5tW-49" style="edgeStyle=orthogonalEdgeStyle;rounded=0;orthogonalLoop=1;jettySize=auto;html=1;exitX=1;exitY=0.5;exitDx=0;exitDy=0;entryX=0.25;entryY=1;entryDx=0;entryDy=0;" edge="1" parent="1" source="hU7J6p0bKYq7fcfu6VAh-14" target="hU7J6p0bKYq7fcfu6VAh-18">
          <mxGeometry relative="1" as="geometry" />
        </mxCell>
        <mxCell id="hU7J6p0bKYq7fcfu6VAh-14" value="&lt;div style=&quot;color: rgb(204, 204, 204); background-color: rgb(31, 31, 31); font-family: Consolas, &amp;quot;Courier New&amp;quot;, monospace; line-height: 19px; white-space: pre;&quot;&gt;&lt;b&gt;int_customer_rfm_segmentation&lt;/b&gt;&lt;/div&gt;" style="text;html=1;align=center;verticalAlign=middle;whiteSpace=wrap;rounded=0;" parent="1" vertex="1">
          <mxGeometry x="770" y="305" width="205" height="40" as="geometry" />
        </mxCell>
        <mxCell id="VnVgwCRqy8seNjEnO5tW-2" style="edgeStyle=orthogonalEdgeStyle;rounded=0;orthogonalLoop=1;jettySize=auto;html=1;exitX=1;exitY=0.5;exitDx=0;exitDy=0;entryX=0.25;entryY=0;entryDx=0;entryDy=0;" edge="1" parent="1" source="hU7J6p0bKYq7fcfu6VAh-15" target="hU7J6p0bKYq7fcfu6VAh-18">
          <mxGeometry relative="1" as="geometry">
            <Array as="points">
              <mxPoint x="1130" y="195" />
            </Array>
          </mxGeometry>
        </mxCell>
        <mxCell id="hU7J6p0bKYq7fcfu6VAh-15" value="&lt;div style=&quot;color: rgb(204, 204, 204); background-color: rgb(31, 31, 31); font-family: Consolas, &amp;quot;Courier New&amp;quot;, monospace; line-height: 19px; white-space: pre;&quot;&gt;&lt;b&gt;int_customer_cltv_segmentation&lt;/b&gt;&lt;/div&gt;" style="text;html=1;align=center;verticalAlign=middle;whiteSpace=wrap;rounded=0;" parent="1" vertex="1">
          <mxGeometry x="760" y="170" width="200" height="50" as="geometry" />
        </mxCell>
        <mxCell id="VnVgwCRqy8seNjEnO5tW-5" style="edgeStyle=orthogonalEdgeStyle;rounded=0;orthogonalLoop=1;jettySize=auto;html=1;" edge="1" parent="1" source="hU7J6p0bKYq7fcfu6VAh-16">
          <mxGeometry relative="1" as="geometry">
            <mxPoint x="1042.5" y="255" as="targetPoint" />
            <Array as="points">
              <mxPoint x="1015" y="260" />
              <mxPoint x="1015" y="256" />
            </Array>
          </mxGeometry>
        </mxCell>
        <mxCell id="hU7J6p0bKYq7fcfu6VAh-16" value="&lt;div style=&quot;color: rgb(204, 204, 204); background-color: rgb(31, 31, 31); font-family: Consolas, &amp;quot;Courier New&amp;quot;, monospace; line-height: 19px; white-space: pre;&quot;&gt;&lt;table class=&quot;simple-table&quot; id=&quot;2311363d-427c-80b6-84d1-ec609ff5034f&quot;&gt;&lt;tbody&gt;&lt;tr id=&quot;2311363d-427c-800a-8e26-e54df83b6653&quot;&gt;&lt;td style=&quot;width:243px&quot; class=&quot;&quot; id=&quot;gC?g&quot;&gt;&lt;b&gt;int_customer_churn_segmentation&lt;/b&gt;&lt;/td&gt;&lt;/tr&gt;&lt;/tbody&gt;&lt;/table&gt;&lt;/div&gt;" style="text;html=1;align=center;verticalAlign=middle;whiteSpace=wrap;rounded=0;" parent="1" vertex="1">
          <mxGeometry x="780.25" y="220" width="207" height="80" as="geometry" />
        </mxCell>
        <mxCell id="hU7J6p0bKYq7fcfu6VAh-18" value="&lt;div style=&quot;color: rgb(204, 204, 204); background-color: rgb(31, 31, 31); font-family: Consolas, &amp;quot;Courier New&amp;quot;, monospace; line-height: 19px; white-space: pre;&quot;&gt;&lt;div style=&quot;line-height: 19px;&quot;&gt;&lt;b&gt;mart_customer_kpis_and_segmentation (table)&lt;/b&gt;&lt;/div&gt;&lt;/div&gt;" style="text;html=1;align=center;verticalAlign=middle;whiteSpace=wrap;rounded=0;" parent="1" vertex="1">
          <mxGeometry x="1072.5" y="230" width="230" height="50" as="geometry" />
        </mxCell>
        <mxCell id="VnVgwCRqy8seNjEnO5tW-21" style="edgeStyle=orthogonalEdgeStyle;rounded=0;orthogonalLoop=1;jettySize=auto;html=1;exitX=0.5;exitY=0;exitDx=0;exitDy=0;entryX=0;entryY=0.5;entryDx=0;entryDy=0;" edge="1" parent="1" source="VnVgwCRqy8seNjEnO5tW-9" target="VnVgwCRqy8seNjEnO5tW-19">
          <mxGeometry relative="1" as="geometry" />
        </mxCell>
        <mxCell id="VnVgwCRqy8seNjEnO5tW-9" value="&lt;div style=&quot;color: rgb(204, 204, 204); background-color: rgb(31, 31, 31); font-family: Consolas, &amp;quot;Courier New&amp;quot;, monospace; line-height: 19px; white-space: pre;&quot;&gt;&lt;div style=&quot;line-height: 19px;&quot;&gt;&lt;span class=&quot;notion-enable-hover&quot; data-token-index=&quot;0&quot; style=&quot;&quot;&gt;&lt;b&gt;int_total_amount_calc &lt;/b&gt;&lt;/span&gt;&lt;/div&gt;&lt;/div&gt;" style="text;html=1;align=center;verticalAlign=middle;whiteSpace=wrap;rounded=0;" vertex="1" parent="1">
          <mxGeometry x="70" y="250" width="140" height="20" as="geometry" />
        </mxCell>
        <mxCell id="VnVgwCRqy8seNjEnO5tW-20" style="edgeStyle=orthogonalEdgeStyle;rounded=0;orthogonalLoop=1;jettySize=auto;html=1;exitX=1;exitY=0.5;exitDx=0;exitDy=0;entryX=0.25;entryY=0;entryDx=0;entryDy=0;" edge="1" parent="1" source="VnVgwCRqy8seNjEnO5tW-19" target="hU7J6p0bKYq7fcfu6VAh-9">
          <mxGeometry relative="1" as="geometry" />
        </mxCell>
        <mxCell id="VnVgwCRqy8seNjEnO5tW-53" style="edgeStyle=orthogonalEdgeStyle;rounded=0;orthogonalLoop=1;jettySize=auto;html=1;exitX=0.75;exitY=0;exitDx=0;exitDy=0;entryX=0.25;entryY=0;entryDx=0;entryDy=0;" edge="1" parent="1" source="VnVgwCRqy8seNjEnO5tW-19" target="VnVgwCRqy8seNjEnO5tW-28">
          <mxGeometry relative="1" as="geometry" />
        </mxCell>
        <mxCell id="VnVgwCRqy8seNjEnO5tW-19" value="&lt;div style=&quot;color: rgb(204, 204, 204); background-color: rgb(31, 31, 31); font-family: Consolas, &amp;quot;Courier New&amp;quot;, monospace; line-height: 19px; white-space: pre;&quot;&gt;&lt;div style=&quot;line-height: 19px;&quot;&gt;&lt;span class=&quot;notion-enable-hover&quot; data-token-index=&quot;0&quot; style=&quot;font-weight:600&quot;&gt;int_customer_aov&lt;/span&gt;&lt;/div&gt;&lt;/div&gt;" style="text;html=1;align=center;verticalAlign=middle;whiteSpace=wrap;rounded=0;" vertex="1" parent="1">
          <mxGeometry x="350" y="100" width="110" height="25" as="geometry" />
        </mxCell>
        <mxCell id="VnVgwCRqy8seNjEnO5tW-22" value="&lt;div style=&quot;color: rgb(204, 204, 204); background-color: rgb(31, 31, 31); font-family: Consolas, &amp;quot;Courier New&amp;quot;, monospace; line-height: 19px; white-space: pre;&quot;&gt;&lt;div style=&quot;line-height: 19px;&quot;&gt;&lt;b&gt;mart_customer_kpis_and_segmentation (table)&lt;/b&gt;&lt;/div&gt;&lt;/div&gt;" style="text;html=1;align=center;verticalAlign=middle;whiteSpace=wrap;rounded=0;" vertex="1" parent="1">
          <mxGeometry x="30" y="330" width="290" height="50" as="geometry" />
        </mxCell>
        <mxCell id="VnVgwCRqy8seNjEnO5tW-25" style="edgeStyle=orthogonalEdgeStyle;rounded=0;orthogonalLoop=1;jettySize=auto;html=1;exitX=1;exitY=0.5;exitDx=0;exitDy=0;entryX=0;entryY=0.5;entryDx=0;entryDy=0;" edge="1" parent="1" source="VnVgwCRqy8seNjEnO5tW-24" target="VnVgwCRqy8seNjEnO5tW-9">
          <mxGeometry relative="1" as="geometry">
            <mxPoint x="60" y="260" as="targetPoint" />
          </mxGeometry>
        </mxCell>
        <mxCell id="VnVgwCRqy8seNjEnO5tW-37" style="edgeStyle=orthogonalEdgeStyle;rounded=0;orthogonalLoop=1;jettySize=auto;html=1;exitX=0.5;exitY=1;exitDx=0;exitDy=0;entryX=0;entryY=0.5;entryDx=0;entryDy=0;" edge="1" parent="1" source="VnVgwCRqy8seNjEnO5tW-24" target="VnVgwCRqy8seNjEnO5tW-22">
          <mxGeometry relative="1" as="geometry" />
        </mxCell>
        <mxCell id="VnVgwCRqy8seNjEnO5tW-24" value="&lt;div style=&quot;color: rgb(204, 204, 204); background-color: rgb(31, 31, 31); font-family: Consolas, &amp;quot;Courier New&amp;quot;, monospace; line-height: 19px; white-space: pre;&quot;&gt;&lt;div style=&quot;line-height: 19px;&quot;&gt;&lt;span class=&quot;notion-enable-hover&quot; data-token-index=&quot;0&quot; style=&quot;&quot;&gt;&lt;b&gt;stg_transaction_logs&lt;/b&gt;&lt;/span&gt;&lt;/div&gt;&lt;/div&gt;" style="text;html=1;align=center;verticalAlign=middle;whiteSpace=wrap;rounded=0;" vertex="1" parent="1">
          <mxGeometry x="-90" y="240" width="70" height="40" as="geometry" />
        </mxCell>
        <mxCell id="VnVgwCRqy8seNjEnO5tW-28" value="&lt;div style=&quot;color: rgb(204, 204, 204); background-color: rgb(31, 31, 31); font-family: Consolas, &amp;quot;Courier New&amp;quot;, monospace; line-height: 19px; white-space: pre;&quot;&gt;&lt;div style=&quot;line-height: 19px;&quot;&gt;&lt;b&gt;mart_overall_customer_kpis&lt;/b&gt;&lt;/div&gt;&lt;/div&gt;" style="text;html=1;align=center;verticalAlign=middle;whiteSpace=wrap;rounded=0;" vertex="1" parent="1">
          <mxGeometry x="760" y="75" width="230" height="50" as="geometry" />
        </mxCell>
        <mxCell id="VnVgwCRqy8seNjEnO5tW-51" style="edgeStyle=orthogonalEdgeStyle;rounded=0;orthogonalLoop=1;jettySize=auto;html=1;exitX=1;exitY=0.5;exitDx=0;exitDy=0;" edge="1" parent="1" source="VnVgwCRqy8seNjEnO5tW-47" target="hU7J6p0bKYq7fcfu6VAh-14">
          <mxGeometry relative="1" as="geometry" />
        </mxCell>
        <mxCell id="VnVgwCRqy8seNjEnO5tW-47" value="&lt;div style=&quot;color: rgb(204, 204, 204); background-color: rgb(31, 31, 31); font-family: Consolas, &amp;quot;Courier New&amp;quot;, monospace; line-height: 19px; white-space: pre;&quot;&gt;&lt;span class=&quot;notion-enable-hover&quot; data-token-index=&quot;0&quot; style=&quot;font-weight:600&quot;&gt;int_customer_rfm_score&lt;/span&gt;&lt;/div&gt;" style="text;html=1;align=center;verticalAlign=middle;whiteSpace=wrap;rounded=0;" vertex="1" parent="1">
          <mxGeometry x="560" y="310" width="150" height="30" as="geometry" />
        </mxCell>
      </root>
    </mxGraphModel>
  </diagram>
</mxfile>
